<svg xmlns="http://www.w3.org/2000/svg" xmlns:xlink="http://www.w3.org/1999/xlink" viewBox="0 0 32 32"><path d="M16 18H6a2 2 0 0 1-2-2V6a2 2 0 0 1 2-2h10a2 2 0 0 1 2 2v10a2 2 0 0 1-2 2zM6 6v10h10V6z" fill="currentColor"></path><path d="M26 12v4h-4v-4h4m0-2h-4a2 2 0 0 0-2 2v4a2 2 0 0 0 2 2h4a2 2 0 0 0 2-2v-4a2 2 0 0 0-2-2z" fill="currentColor"></path><path d="M26 22v4h-4v-4h4m0-2h-4a2 2 0 0 0-2 2v4a2 2 0 0 0 2 2h4a2 2 0 0 0 2-2v-4a2 2 0 0 0-2-2z" fill="currentColor"/><path d="M16 22v4h-4v-4h4m0-2h-4a2 2 0 0 0-2 2v4a2 2 0 0 0 2 2h4a2 2 0 0 0 2-2v-4a2 2 0 0 0-2-2z" fill="currentColor"/></svg>