<svg xmlns="http://www.w3.org/2000/svg" xmlns:xlink="http://www.w3.org/1999/xlink" viewBox="0 0 20 20"><g fill="none"><path d="M7.146 4.354a.5.5 0 0 0 .708 0L9.5 2.707V6.5a.5.5 0 0 0 1 0V2.707l1.646 1.647a.5.5 0 0 0 .708-.708l-2.5-2.5a.5.5 0 0 0-.708 0l-2.5 2.5a.5.5 0 0 0 0 .708zm-2.792 3.5a.5.5 0 1 0-.708-.708l-2.5 2.5a.5.5 0 0 0 0 .708l2.5 2.5a.5.5 0 0 0 .708-.708L2.707 10.5H6.5a.5.5 0 0 0 0-1H2.707l1.647-1.646zm11.292 0a.5.5 0 0 1 .708-.708l2.5 2.5a.5.5 0 0 1 0 .708l-2.5 2.5a.5.5 0 0 1-.708-.708l1.647-1.646H13.5a.5.5 0 0 1 0-1h3.793l-1.647-1.646zm-7.792 7.792a.5.5 0 0 0-.708.708l2.5 2.5a.5.5 0 0 0 .708 0l2.5-2.5a.5.5 0 0 0-.708-.708L10.5 17.293V13.5a.5.5 0 0 0-1 0v3.793l-1.646-1.647z" fill="currentColor"/></g></svg>