<svg xmlns="http://www.w3.org/2000/svg" xmlns:xlink="http://www.w3.org/1999/xlink" viewBox="0 0 32 32"><circle cx="7" cy="23" r="1" fill="currentColor"></circle><path d="M2 6h4v2H2z" fill="currentColor"></path><path d="M8 6h4v2H8z" fill="currentColor"></path><path d="M14 6h4v2h-4z" fill="currentColor"></path><path d="M20 6h4v2h-4z" fill="currentColor"></path><path d="M26 6h4v2h-4z" fill="currentColor"></path><path d="M28 28H4a2.002 2.002 0 0 1-2-2v-6a2.002 2.002 0 0 1 2-2h24a2.002 2.002 0 0 1 2 2v6a2.002 2.002 0 0 1-2 2zM4 20v6h24v-6z" fill="currentColor"/><path d="M2 12h28v2H2z" fill="currentColor"/></svg>