<svg style="vertical-align: middle;fill: currentColor;overflow: hidden;"
     viewBox="0 0 1024 1024" version="1.1" xmlns="http://www.w3.org/2000/svg">
    <path d="M740.1 291.7c33 0 60-27 60-60s-27-60-60-60-60 27-60 60 26.9 60 60 60z" fill="#5100A1"/>
    <path d="M737 227.1m-60 0a60 60 0 1 0 120 0 60 60 0 1 0-120 0Z" fill="#5102A2"/>
    <path d="M733.8 222.6m-60 0a60 60 0 1 0 120 0 60 60 0 1 0-120 0Z" fill="#5105A3"/>
    <path d="M730.4 218.2m-60 0a60 60 0 1 0 120 0 60 60 0 1 0-120 0Z" fill="#5107A4"/>
    <path d="M727 213.9m-60 0a60 60 0 1 0 120 0 60 60 0 1 0-120 0Z" fill="#510AA5"/>
    <path d="M723.4 209.7m-60 0a60 60 0 1 0 120 0 60 60 0 1 0-120 0Z" fill="#510CA6"/>
    <path d="M719.7 205.6m-60 0a60 60 0 1 0 120 0 60 60 0 1 0-120 0Z" fill="#510FA7"/>
    <path d="M715.9 201.6m-60 0a60 60 0 1 0 120 0 60 60 0 1 0-120 0Z" fill="#5211A8"/>
    <path d="M712 197.7m-60 0a60 60 0 1 0 120 0 60 60 0 1 0-120 0Z" fill="#5214A8"/>
    <path d="M708 193.9m-60 0a60 60 0 1 0 120 0 60 60 0 1 0-120 0Z" fill="#5216A9"/>
    <path d="M703.9 190.2m-60 0a60 60 0 1 0 120 0 60 60 0 1 0-120 0Z" fill="#5219AA"/>
    <path d="M699.8 186.6m-60 0a60 60 0 1 0 120 0 60 60 0 1 0-120 0Z" fill="#521BAB"/>
    <path d="M695.5 183.1m-60 0a60 60 0 1 0 120 0 60 60 0 1 0-120 0Z" fill="#521EAC"/>
    <path d="M691.2 179.7m-60 0a60 60 0 1 0 120 0 60 60 0 1 0-120 0Z" fill="#5220AD"/>
    <path d="M686.7 176.4m-60 0a60 60 0 1 0 120 0 60 60 0 1 0-120 0Z" fill="#5223AE"/>
    <path d="M682.3 173.2m-60 0a60 60 0 1 0 120 0 60 60 0 1 0-120 0Z" fill="#5225AF"/>
    <path d="M677.7 170.1m-60 0a60 60 0 1 0 120 0 60 60 0 1 0-120 0Z" fill="#5228B0"/>
    <path d="M673.1 167m-60 0a60 60 0 1 0 120 0 60 60 0 1 0-120 0Z" fill="#522AB1"/>
    <path d="M668.4 164.1m-60 0a60 60 0 1 0 120 0 60 60 0 1 0-120 0Z" fill="#522DB2"/>
    <path d="M663.6 161.3m-60 0a60 60 0 1 0 120 0 60 60 0 1 0-120 0Z" fill="#532FB3"/>
    <path d="M658.8 158.6m-60 0a60 60 0 1 0 120 0 60 60 0 1 0-120 0Z" fill="#5332B4"/>
    <path d="M653.9 156m-60 0a60 60 0 1 0 120 0 60 60 0 1 0-120 0Z" fill="#5334B5"/>
    <path d="M649 153.5m-60 0a60 60 0 1 0 120 0 60 60 0 1 0-120 0Z" fill="#5337B5"/>
    <path d="M644 151.1m-60 0a60 60 0 1 0 120 0 60 60 0 1 0-120 0Z" fill="#5339B6"/>
    <path d="M639 148.8m-60 0a60 60 0 1 0 120 0 60 60 0 1 0-120 0Z" fill="#533CB7"/>
    <path d="M634 146.6m-60 0a60 60 0 1 0 120 0 60 60 0 1 0-120 0Z" fill="#533EB8"/>
    <path d="M628.9 144.5m-60 0a60 60 0 1 0 120 0 60 60 0 1 0-120 0Z" fill="#5341B9"/>
    <path d="M623.7 142.5m-60 0a60 60 0 1 0 120 0 60 60 0 1 0-120 0Z" fill="#5343BA"/>
    <path d="M618.5 140.6m-60 0a60 60 0 1 0 120 0 60 60 0 1 0-120 0Z" fill="#5346BB"/>
    <path d="M613.3 138.8m-60 0a60 60 0 1 0 120 0 60 60 0 1 0-120 0Z" fill="#5348BC"/>
    <path d="M608.1 137.1m-60 0a60 60 0 1 0 120 0 60 60 0 1 0-120 0Z" fill="#534BBD"/>
    <path d="M602.8 135.5m-60 0a60 60 0 1 0 120 0 60 60 0 1 0-120 0Z" fill="#534DBE"/>
    <path d="M597.5 134m-60 0a60 60 0 1 0 120 0 60 60 0 1 0-120 0Z" fill="#5450BF"/>
    <path d="M592.2 132.6m-60 0a60 60 0 1 0 120 0 60 60 0 1 0-120 0Z" fill="#5452C0"/>
    <path d="M586.8 131.3m-60 0a60 60 0 1 0 120 0 60 60 0 1 0-120 0Z" fill="#5455C1"/>
    <path d="M581.4 130.1m-60 0a60 60 0 1 0 120 0 60 60 0 1 0-120 0Z" fill="#5457C2"/>
    <path d="M576 129m-60 0a60 60 0 1 0 120 0 60 60 0 1 0-120 0Z" fill="#545AC3"/>
    <path d="M570.6 127.9m-60 0a60 60 0 1 0 120 0 60 60 0 1 0-120 0Z" fill="#545CC3"/>
    <path d="M565.1 127m-60 0a60 60 0 1 0 120 0 60 60 0 1 0-120 0Z" fill="#545FC4"/>
    <path d="M559.7 126.2m-60 0a60 60 0 1 0 120 0 60 60 0 1 0-120 0Z" fill="#5461C5"/>
    <path d="M554.2 125.5m-60 0a60 60 0 1 0 120 0 60 60 0 1 0-120 0Z" fill="#5464C6"/>
    <path d="M548.7 124.8m-60 0a60 60 0 1 0 120 0 60 60 0 1 0-120 0Z" fill="#5466C7"/>
    <path d="M543.2 124.3m-60 0a60 60 0 1 0 120 0 60 60 0 1 0-120 0Z" fill="#5469C8"/>
    <path d="M537.7 123.9m-60 0a60 60 0 1 0 120 0 60 60 0 1 0-120 0Z" fill="#546BC9"/>
    <path d="M532.2 123.5m-60 0a60 60 0 1 0 120 0 60 60 0 1 0-120 0Z" fill="#546ECA"/>
    <path d="M526.7 123.4m-60 0a60 60 0 1 0 120 0 60 60 0 1 0-120 0Z" fill="#5570CB"/>
    <path d="M521.2 123.2m-60 0a60 60 0 1 0 120 0 60 60 0 1 0-120 0Z" fill="#5573CC"/>
    <path d="M515.7 123.2m-60 0a60 60 0 1 0 120 0 60 60 0 1 0-120 0Z" fill="#5575CD"/>
    <path d="M510.2 123.2m-60 0a60 60 0 1 0 120 0 60 60 0 1 0-120 0Z" fill="#5578CE"/>
    <path d="M504.6 123.3m-60 0a60 60 0 1 0 120 0 60 60 0 1 0-120 0Z" fill="#557ACF"/>
    <path d="M499.1 123.6m-60 0a60 60 0 1 0 120 0 60 60 0 1 0-120 0Z" fill="#557DD0"/>
    <path d="M493.6 123.9m-60 0a60 60 0 1 0 120 0 60 60 0 1 0-120 0Z" fill="#557FD0"/>
    <path d="M488.1 124.4m-60 0a60 60 0 1 0 120 0 60 60 0 1 0-120 0Z" fill="#5582D1"/>
    <path d="M482.6 124.9m-60 0a60 60 0 1 0 120 0 60 60 0 1 0-120 0Z" fill="#5584D2"/>
    <path d="M477.2 125.6m-60 0a60 60 0 1 0 120 0 60 60 0 1 0-120 0Z" fill="#5587D3"/>
    <path d="M471.7 126.3m-60 0a60 60 0 1 0 120 0 60 60 0 1 0-120 0Z" fill="#5589D4"/>
    <path d="M466.2 127.2m-60 0a60 60 0 1 0 120 0 60 60 0 1 0-120 0Z" fill="#558CD5"/>
    <path d="M460.8 128.1m-60 0a60 60 0 1 0 120 0 60 60 0 1 0-120 0Z" fill="#568ED6"/>
    <path d="M455.4 129.1m-60 0a60 60 0 1 0 120 0 60 60 0 1 0-120 0Z" fill="#5691D7"/>
    <path d="M450 130.3m-60 0a60 60 0 1 0 120 0 60 60 0 1 0-120 0Z" fill="#5693D8"/>
    <path d="M444.6 131.5m-60 0a60 60 0 1 0 120 0 60 60 0 1 0-120 0Z" fill="#5696D9"/>
    <path d="M439.3 132.9m-60 0a60 60 0 1 0 120 0 60 60 0 1 0-120 0Z" fill="#5698DA"/>
    <path d="M433.9 134.3m-60 0a60 60 0 1 0 120 0 60 60 0 1 0-120 0Z" fill="#569BDB"/>
    <path d="M428.6 135.9m-60 0a60 60 0 1 0 120 0 60 60 0 1 0-120 0Z" fill="#569DDC"/>
    <path d="M423.4 137.6m-60 0a60 60 0 1 0 120 0 60 60 0 1 0-120 0Z" fill="#56A0DD"/>
    <path d="M418.2 139.4m-60 0a60 60 0 1 0 120 0 60 60 0 1 0-120 0Z" fill="#56A2DD"/>
    <path d="M412.9 141.2m-60 0a60 60 0 1 0 120 0 60 60 0 1 0-120 0Z" fill="#56A5DE"/>
    <path d="M407.8 143.2m-60 0a60 60 0 1 0 120 0 60 60 0 1 0-120 0Z" fill="#56A7DF"/>
    <path d="M402.7 145.2m-60 0a60 60 0 1 0 120 0 60 60 0 1 0-120 0Z" fill="#56AAE0"/>
    <path d="M397.6 147.5m-60 0a60 60 0 1 0 120 0 60 60 0 1 0-120 0Z" fill="#56ACE1"/>
    <path d="M392.6 149.7m-60 0a60 60 0 1 0 120 0 60 60 0 1 0-120 0Z" fill="#57AFE2"/>
    <path d="M387.7 152.2m-60 0a60 60 0 1 0 120 0 60 60 0 1 0-120 0Z" fill="#57B1E3"/>
    <path d="M382.7 154.6m-60 0a60 60 0 1 0 120 0 60 60 0 1 0-120 0Z" fill="#57B4E4"/>
    <path d="M377.9 157.3m-60 0a60 60 0 1 0 120 0 60 60 0 1 0-120 0Z" fill="#57B6E5"/>
    <path d="M373.1 160m-60 0a60 60 0 1 0 120 0 60 60 0 1 0-120 0Z" fill="#57B9E6"/>
    <path d="M368.3 162.9m-60 0a60 60 0 1 0 120 0 60 60 0 1 0-120 0Z" fill="#57BBE7"/>
    <path d="M363.6 165.8m-60 0a60 60 0 1 0 120 0 60 60 0 1 0-120 0Z" fill="#57BEE8"/>
    <path d="M359.1 168.8m-60 0a60 60 0 1 0 120 0 60 60 0 1 0-120 0Z" fill="#57C0E9"/>
    <path d="M354.5 172m-60 0a60 60 0 1 0 120 0 60 60 0 1 0-120 0Z" fill="#57C3EA"/>
    <path d="M350.1 175.3m-60 0a60 60 0 1 0 120 0 60 60 0 1 0-120 0Z" fill="#57C5EB"/>
    <path d="M345.7 178.6m-60 0a60 60 0 1 0 120 0 60 60 0 1 0-120 0Z" fill="#57C8EB"/>
    <path d="M341.4 182.1m-60 0a60 60 0 1 0 120 0 60 60 0 1 0-120 0Z" fill="#57CAEC"/>
    <path d="M337.2 185.7m-60 0a60 60 0 1 0 120 0 60 60 0 1 0-120 0Z" fill="#57CDED"/>
    <path d="M333.1 189.4m-60 0a60 60 0 1 0 120 0 60 60 0 1 0-120 0Z" fill="#58CFEE"/>
    <path d="M329.1 193.2m-60 0a60 60 0 1 0 120 0 60 60 0 1 0-120 0Z" fill="#58D2EF"/>
    <path d="M325.2 197.1m-60 0a60 60 0 1 0 120 0 60 60 0 1 0-120 0Z" fill="#58D4F0"/>
    <path d="M321.5 201.1m-60 0a60 60 0 1 0 120 0 60 60 0 1 0-120 0Z" fill="#58D7F1"/>
    <path d="M317.8 205.2m-60 0a60 60 0 1 0 120 0 60 60 0 1 0-120 0Z" fill="#58D9F2"/>
    <path d="M314.3 209.5m-60 0a60 60 0 1 0 120 0 60 60 0 1 0-120 0Z" fill="#58DCF3"/>
    <path d="M310.8 213.7m-60 0a60 60 0 1 0 120 0 60 60 0 1 0-120 0Z" fill="#58DEF4"/>
    <path d="M307.5 218.2m-60 0a60 60 0 1 0 120 0 60 60 0 1 0-120 0Z" fill="#58E1F5"/>
    <path d="M304.3 222.7m-60 0a60 60 0 1 0 120 0 60 60 0 1 0-120 0Z" fill="#58E3F6"/>
    <path d="M301.3 227.3m-60 0a60 60 0 1 0 120 0 60 60 0 1 0-120 0Z" fill="#58E6F7"/>
    <path d="M298.4 232m-60 0a60 60 0 1 0 120 0 60 60 0 1 0-120 0Z" fill="#58E8F8"/>
    <path d="M295.7 236.8m-60 0a60 60 0 1 0 120 0 60 60 0 1 0-120 0Z" fill="#58EBF8"/>
    <path d="M293.2 241.7m-60 0a60 60 0 1 0 120 0 60 60 0 1 0-120 0Z" fill="#59EDF9"/>
    <path d="M290.7 246.7m-60 0a60 60 0 1 0 120 0 60 60 0 1 0-120 0Z" fill="#59F0FA"/>
    <path d="M288.5 251.7m-60 0a60 60 0 1 0 120 0 60 60 0 1 0-120 0Z" fill="#59F2FB"/>
    <path d="M286.4 256.8m-60 0a60 60 0 1 0 120 0 60 60 0 1 0-120 0Z" fill="#59F5FC"/>
    <path d="M284.6 262m-60 0a60 60 0 1 0 120 0 60 60 0 1 0-120 0Z" fill="#59F7FD"/>
    <path d="M282.8 267.3m-60 0a60 60 0 1 0 120 0 60 60 0 1 0-120 0Z" fill="#59FAFE"/>
    <path d="M281.3 332.6c33 0 60-27 60-60s-27-60-60-60-60 27-60 60 27 60 60 60z" fill="#59FCFF"/>
    <path d="M278.4 285.3m-60 0a60 60 0 1 0 120 0 60 60 0 1 0-120 0Z" fill="#59FAFF"/>
    <path d="M276.7 298.3m-60 0a60 60 0 1 0 120 0 60 60 0 1 0-120 0Z" fill="#5AF8FF"/>
    <path d="M276.1 311.4m-60 0a60 60 0 1 0 120 0 60 60 0 1 0-120 0Z" fill="#5AF7FF"/>
    <path d="M276.1 324.5m-60 0a60 60 0 1 0 120 0 60 60 0 1 0-120 0Z" fill="#5BF5FF"/>
    <path d="M276.9 337.5m-60 0a60 60 0 1 0 120 0 60 60 0 1 0-120 0Z" fill="#5BF3FF"/>
    <path d="M278.5 350.5m-60 0a60 60 0 1 0 120 0 60 60 0 1 0-120 0Z" fill="#5CF1FF"/>
    <path d="M281.2 363.3m-60 0a60 60 0 1 0 120 0 60 60 0 1 0-120 0Z" fill="#5CEFFF"/>
    <path d="M284.4 376m-60 0a60 60 0 1 0 120 0 60 60 0 1 0-120 0Z" fill="#5DEEFF"/>
    <path d="M289.4 388.1m-60 0a60 60 0 1 0 120 0 60 60 0 1 0-120 0Z" fill="#5DECFF"/>
    <path d="M295.1 399.8m-60 0a60 60 0 1 0 120 0 60 60 0 1 0-120 0Z" fill="#5EEAFF"/>
    <path d="M301.9 411m-60 0a60 60 0 1 0 120 0 60 60 0 1 0-120 0Z" fill="#5EE8FF"/>
    <path d="M310 421.3m-60 0a60 60 0 1 0 120 0 60 60 0 1 0-120 0Z" fill="#5EE6FF"/>
    <path d="M318.7 431m-60 0a60 60 0 1 0 120 0 60 60 0 1 0-120 0Z" fill="#5FE5FF"/>
    <path d="M328.3 440m-60 0a60 60 0 1 0 120 0 60 60 0 1 0-120 0Z" fill="#5FE3FF"/>
    <path d="M338.7 447.9m-60 0a60 60 0 1 0 120 0 60 60 0 1 0-120 0Z" fill="#60E1FF"/>
    <path d="M349.5 455.3m-60 0a60 60 0 1 0 120 0 60 60 0 1 0-120 0Z" fill="#60DFFF"/>
    <path d="M360.7 462m-60 0a60 60 0 1 0 120 0 60 60 0 1 0-120 0Z" fill="#61DEFF"/>
    <path d="M372.4 468m-60 0a60 60 0 1 0 120 0 60 60 0 1 0-120 0Z" fill="#61DCFF"/>
    <path d="M384.2 473.6m-60 0a60 60 0 1 0 120 0 60 60 0 1 0-120 0Z" fill="#62DAFF"/>
    <path d="M396.4 478.5m-60 0a60 60 0 1 0 120 0 60 60 0 1 0-120 0Z" fill="#62D8FF"/>
    <path d="M408.6 483.1m-60 0a60 60 0 1 0 120 0 60 60 0 1 0-120 0Z" fill="#63D6FF"/>
    <path d="M421 487.4m-60 0a60 60 0 1 0 120 0 60 60 0 1 0-120 0Z" fill="#63D5FF"/>
    <path d="M433.5 491.3m-60 0a60 60 0 1 0 120 0 60 60 0 1 0-120 0Z" fill="#63D3FF"/>
    <path d="M446 495.1m-60 0a60 60 0 1 0 120 0 60 60 0 1 0-120 0Z" fill="#64D1FF"/>
    <path d="M458.6 498.5m-60 0a60 60 0 1 0 120 0 60 60 0 1 0-120 0Z" fill="#64CFFF"/>
    <path d="M471.3 501.9m-60 0a60 60 0 1 0 120 0 60 60 0 1 0-120 0Z" fill="#65CDFF"/>
    <path d="M484 505.1m-60 0a60 60 0 1 0 120 0 60 60 0 1 0-120 0Z" fill="#65CCFF"/>
    <path d="M496.7 508.3m-60 0a60 60 0 1 0 120 0 60 60 0 1 0-120 0Z" fill="#66CAFF"/>
    <path d="M509.4 511.4m-60 0a60 60 0 1 0 120 0 60 60 0 1 0-120 0Z" fill="#66C8FF"/>
    <path d="M522.1 514.5m-60 0a60 60 0 1 0 120 0 60 60 0 1 0-120 0Z" fill="#67C6FF"/>
    <path d="M534.9 517.6m-60 0a60 60 0 1 0 120 0 60 60 0 1 0-120 0Z" fill="#67C4FF"/>
    <path d="M547.6 520.8m-60 0a60 60 0 1 0 120 0 60 60 0 1 0-120 0Z" fill="#68C3FF"/>
    <path d="M560.2 524.1m-60 0a60 60 0 1 0 120 0 60 60 0 1 0-120 0Z" fill="#68C1FF"/>
    <path d="M572.9 527.5m-60 0a60 60 0 1 0 120 0 60 60 0 1 0-120 0Z" fill="#68BFFF"/>
    <path d="M585.5 531.2m-60 0a60 60 0 1 0 120 0 60 60 0 1 0-120 0Z" fill="#69BDFF"/>
    <path d="M598 535m-60 0a60 60 0 1 0 120 0 60 60 0 1 0-120 0Z" fill="#69BBFF"/>
    <path d="M610.4 539.2m-60 0a60 60 0 1 0 120 0 60 60 0 1 0-120 0Z" fill="#6ABAFF"/>
    <path d="M622.7 543.5m-60 0a60 60 0 1 0 120 0 60 60 0 1 0-120 0Z" fill="#6AB8FF"/>
    <path d="M634.9 548.4m-60 0a60 60 0 1 0 120 0 60 60 0 1 0-120 0Z" fill="#6BB6FF"/>
    <path d="M646.8 553.7m-60 0a60 60 0 1 0 120 0 60 60 0 1 0-120 0Z" fill="#6BB4FF"/>
    <path d="M658.6 559.5m-60 0a60 60 0 1 0 120 0 60 60 0 1 0-120 0Z" fill="#6CB3FF"/>
    <path d="M670 566m-60 0a60 60 0 1 0 120 0 60 60 0 1 0-120 0Z" fill="#6CB1FF"/>
    <path d="M681 572.9m-60 0a60 60 0 1 0 120 0 60 60 0 1 0-120 0Z" fill="#6DAFFF"/>
    <path d="M691.6 580.7m-60 0a60 60 0 1 0 120 0 60 60 0 1 0-120 0Z" fill="#6DADFF"/>
    <path d="M701.4 589.4m-60 0a60 60 0 1 0 120 0 60 60 0 1 0-120 0Z" fill="#6DABFF"/>
    <path d="M710.7 598.6m-60 0a60 60 0 1 0 120 0 60 60 0 1 0-120 0Z" fill="#6EAAFF"/>
    <path d="M719 608.7m-60 0a60 60 0 1 0 120 0 60 60 0 1 0-120 0Z" fill="#6EA8FF"/>
    <path d="M726.1 619.6m-60 0a60 60 0 1 0 120 0 60 60 0 1 0-120 0Z" fill="#6FA6FF"/>
    <path d="M732.5 631m-60 0a60 60 0 1 0 120 0 60 60 0 1 0-120 0Z" fill="#6FA4FF"/>
    <path d="M737.6 643.1m-60 0a60 60 0 1 0 120 0 60 60 0 1 0-120 0Z" fill="#70A2FF"/>
    <path d="M741.5 655.6m-60 0a60 60 0 1 0 120 0 60 60 0 1 0-120 0Z" fill="#70A1FF"/>
    <path d="M744.8 668.2m-60 0a60 60 0 1 0 120 0 60 60 0 1 0-120 0Z" fill="#719FFF"/>
    <path d="M746.5 681.2m-60 0a60 60 0 1 0 120 0 60 60 0 1 0-120 0Z" fill="#719DFF"/>
    <path d="M747.9 694.2m-60 0a60 60 0 1 0 120 0 60 60 0 1 0-120 0Z" fill="#729BFF"/>
    <path d="M747.9 707.3m-60 0a60 60 0 1 0 120 0 60 60 0 1 0-120 0Z" fill="#7299FF"/>
    <path d="M747.8 720.4m-60 0a60 60 0 1 0 120 0 60 60 0 1 0-120 0Z" fill="#7398FF"/>
    <path d="M746.4 733.4m-60 0a60 60 0 1 0 120 0 60 60 0 1 0-120 0Z" fill="#7396FF"/>
    <path d="M744 746.3m-60 0a60 60 0 1 0 120 0 60 60 0 1 0-120 0Z" fill="#7394FF"/>
    <path d="M740.5 758.9m-60 0a60 60 0 1 0 120 0 60 60 0 1 0-120 0Z" fill="#7492FF"/>
    <path d="M735.9 771.2m-60 0a60 60 0 1 0 120 0 60 60 0 1 0-120 0Z" fill="#7490FF"/>
    <path d="M730.5 783.1m-60 0a60 60 0 1 0 120 0 60 60 0 1 0-120 0Z" fill="#758FFF"/>
    <path d="M724.1 794.5m-60 0a60 60 0 1 0 120 0 60 60 0 1 0-120 0Z" fill="#758DFF"/>
    <path d="M716.8 805.4m-60 0a60 60 0 1 0 120 0 60 60 0 1 0-120 0Z" fill="#768BFF"/>
    <path d="M708.8 815.7m-60 0a60 60 0 1 0 120 0 60 60 0 1 0-120 0Z" fill="#7689FF"/>
    <path d="M700.1 825.6m-60 0a60 60 0 1 0 120 0 60 60 0 1 0-120 0Z" fill="#7788FF"/>
    <path d="M690.8 834.7m-60 0a60 60 0 1 0 120 0 60 60 0 1 0-120 0Z" fill="#7786FF"/>
    <path d="M680.9 843.3m-60 0a60 60 0 1 0 120 0 60 60 0 1 0-120 0Z" fill="#7884FF"/>
    <path d="M670.5 851.3m-60 0a60 60 0 1 0 120 0 60 60 0 1 0-120 0Z" fill="#7882FF"/>
    <path d="M659.7 858.7m-60 0a60 60 0 1 0 120 0 60 60 0 1 0-120 0Z" fill="#7880FF"/>
    <path d="M648.5 865.4m-60 0a60 60 0 1 0 120 0 60 60 0 1 0-120 0Z" fill="#797FFF"/>
    <path d="M636.9 871.6m-60 0a60 60 0 1 0 120 0 60 60 0 1 0-120 0Z" fill="#797DFF"/>
    <path d="M625.1 877.1m-60 0a60 60 0 1 0 120 0 60 60 0 1 0-120 0Z" fill="#7A7BFF"/>
    <path d="M613 882.1m-60 0a60 60 0 1 0 120 0 60 60 0 1 0-120 0Z" fill="#7A79FF"/>
    <path d="M600.6 886.5m-60 0a60 60 0 1 0 120 0 60 60 0 1 0-120 0Z" fill="#7B77FF"/>
    <path d="M588.1 890.3m-60 0a60 60 0 1 0 120 0 60 60 0 1 0-120 0Z" fill="#7B76FF"/>
    <path d="M575.4 893.4m-60 0a60 60 0 1 0 120 0 60 60 0 1 0-120 0Z" fill="#7C74FF"/>
    <path d="M562.6 896m-60 0a60 60 0 1 0 120 0 60 60 0 1 0-120 0Z" fill="#7C72FF"/>
    <path d="M549.6 898.1m-60 0a60 60 0 1 0 120 0 60 60 0 1 0-120 0Z" fill="#7D70FF"/>
    <path d="M536.6 899.6m-60 0a60 60 0 1 0 120 0 60 60 0 1 0-120 0Z" fill="#7D6EFF"/>
    <path d="M523.6 900.5m-60 0a60 60 0 1 0 120 0 60 60 0 1 0-120 0Z" fill="#7D6DFF"/>
    <path d="M510.5 900.8m-60 0a60 60 0 1 0 120 0 60 60 0 1 0-120 0Z" fill="#7E6BFF"/>
    <path d="M497.4 900.7m-60 0a60 60 0 1 0 120 0 60 60 0 1 0-120 0Z" fill="#7E69FF"/>
    <path d="M484.3 900m-60 0a60 60 0 1 0 120 0 60 60 0 1 0-120 0Z" fill="#7F67FF"/>
    <path d="M471.3 898.7m-60 0a60 60 0 1 0 120 0 60 60 0 1 0-120 0Z" fill="#7F65FF"/>
    <path d="M458.3 896.9m-60 0a60 60 0 1 0 120 0 60 60 0 1 0-120 0Z" fill="#8064FF"/>
    <path d="M445.4 894.5m-60 0a60 60 0 1 0 120 0 60 60 0 1 0-120 0Z" fill="#8062FF"/>
    <path d="M432.7 891.6m-60 0a60 60 0 1 0 120 0 60 60 0 1 0-120 0Z" fill="#8160FF"/>
    <path d="M420 888.2m-60 0a60 60 0 1 0 120 0 60 60 0 1 0-120 0Z" fill="#815EFF"/>
    <path d="M407.6 884.1m-60 0a60 60 0 1 0 120 0 60 60 0 1 0-120 0Z" fill="#825DFF"/>
    <path d="M395.3 879.5m-60 0a60 60 0 1 0 120 0 60 60 0 1 0-120 0Z" fill="#825BFF"/>
    <path d="M383.3 874.4m-60 0a60 60 0 1 0 120 0 60 60 0 1 0-120 0Z" fill="#8259FF"/>
    <path d="M371.5 868.7m-60 0a60 60 0 1 0 120 0 60 60 0 1 0-120 0Z" fill="#8357FF"/>
    <path d="M360 862.4m-60 0a60 60 0 1 0 120 0 60 60 0 1 0-120 0Z" fill="#8355FF"/>
    <path d="M348.8 855.6m-60 0a60 60 0 1 0 120 0 60 60 0 1 0-120 0Z" fill="#8454FF"/>
    <path d="M338 848.2m-60 0a60 60 0 1 0 120 0 60 60 0 1 0-120 0Z" fill="#8452FF"/>
    <path d="M327.6 840.2m-60 0a60 60 0 1 0 120 0 60 60 0 1 0-120 0Z" fill="#8550FF"/>
    <path d="M317.7 831.7m-60 0a60 60 0 1 0 120 0 60 60 0 1 0-120 0Z" fill="#854EFF"/>
    <path d="M308.3 822.6m-60 0a60 60 0 1 0 120 0 60 60 0 1 0-120 0Z" fill="#864CFF"/>
    <path d="M299.5 812.9m-60 0a60 60 0 1 0 120 0 60 60 0 1 0-120 0Z" fill="#864BFF"/>
    <path d="M291.3 802.7m-60 0a60 60 0 1 0 120 0 60 60 0 1 0-120 0Z" fill="#8749FF"/>
    <path d="M283.9 852.3c33 0 60-27 60-60s-27-60-60-60-60 27-60 60c0 33.1 27 60 60 60z" fill="#8747FF"/>
</svg>